FILE "Bang Bang Busters (2012)(NCI - Visco).bin" BINARY
  TRACK 01 MODE1/2352
    INDEX 01 00:00:00
  TRACK 02 MODE1/2352
    INDEX 01 00:44:52
  TRACK 03 MODE1/2352
    INDEX 01 01:41:24
